<svg xmlns="http://www.w3.org/2000/svg" width="41" height="40" viewBox="0 0 41 40">
    <g fill="none" fill-rule="evenodd" stroke="#00965E" stroke-linecap="round" stroke-linejoin="round" stroke-width="2">
        <path d="M12.996 25.764a10.13 10.13 0 0 1-.492-.564 9.846 9.846 0 0 1-2.216-6.222c0-5.583 4.682-10.108 10.458-10.108s10.458 4.525 10.458 10.108c0 2.6-1.016 4.971-2.685 6.762M23.558 38.387h-5.625c-1.1 0-2-.9-2-2V32.56c0-1.1.9-2 2-2h5.625c1.1 0 2 .9 2 2v3.828c0 1.1-.9 2-2 2zM15.871 31.738c-.358-1.155-1.271-3.736-2.839-5.9M25.615 31.738c.358-1.155 1.271-3.736 2.84-5.9"/>
        <path d="M17.621 23.672s1.045 1.375 3.045 1.375 3.299-1.375 3.299-1.375M16.054 17.554l.062-.008M25.152 17.554l.063-.008M5.075 20.297H1.778M4.33 10.771l2.818 1.628M28.697 6.67l1.658-2.873M20.83 4.499V1.246M12.924 6.604l-1.621-2.807M34.3 28.074l3.03 1.75M7.251 28.136L4.33 29.823M37.329 10.771l-2.927 1.69M39.881 20.297h-3.443"/>
    </g>
</svg>
