<svg xmlns="http://www.w3.org/2000/svg" width="40" height="43" viewBox="0 0 40 43">
    <g fill="none" fill-rule="evenodd" stroke="#00965E" stroke-width="2">
        <path stroke-linecap="round" stroke-linejoin="round" d="M20.534 22.641h8.984v-8.104h4.556L20.66 1.162h-.005L7.241 14.537h4.555v8.104h8.985"/>
        <path stroke-linecap="round" stroke-linejoin="round" d="M17.939 22.641v-5.457c0-.357.29-.647.647-.647h4.135c.362 0 .655.293.655.655v5.45"/>
        <path d="M7.652 30.058l5.583-3.25s1.417-1 3.292-1.042c1.875-.042 9.333-.083 9.333-.083s2.21 0 2.21 2.291c0 2.292-3.21 1.792-3.21 1.792h-3.04s-2.71-.375-2.668 1.625c.042 2 2.875 1.708 2.875 1.708h4.292s1.708.167 4.75-1.5c3.041-1.666 3.75-1.958 3.75-1.958s2.625-1.667 3.666.125c1.042 1.792-.625 2.875-1.458 3.333-.833.46-6.208 3.792-6.208 3.792s-.959 1.083-3.834 1.083-16.333-.083-16.333-.083l-3-7.833z"/>
        <path d="M10.186 39.455l-4.591 1.76a1.002 1.002 0 0 1-1.292-.576l-3.237-8.443a1 1 0 0 1 .577-1.291l4.59-1.761a1.001 1.001 0 0 1 1.292.577l3.237 8.442a1 1 0 0 1-.576 1.292z"/>
    </g>
</svg>
