<svg xmlns="http://www.w3.org/2000/svg" width="30" height="30" viewBox="0 0 30 30">
    <g fill="#454545" fill-rule="evenodd">
        <path fill-rule="nonzero" d="M5.303 29.189a.75.75 0 0 1-.75-.75v-3.742a.75.75 0 0 1 .75-.75h18.71a.75.75 0 0 1 .75.75v3.742a.75.75 0 0 1-.75.75H5.303zm.75-1.5h17.21v-2.242H6.053v2.242z"/>
        <path fill-rule="nonzero" d="M21.018 23.947H8.11V14.34c0-3.526 2.888-6.387 6.454-6.387 3.565 0 6.453 2.861 6.453 6.387v4.315a.75.75 0 0 0 1.5 0V14.34c0-4.357-3.563-7.887-7.953-7.887-4.391 0-7.954 3.53-7.954 7.887v10.357c0 .414.336.75.75.75h14.407a.75.75 0 0 0 .75-.75v-2.04a.75.75 0 0 0-1.5 0v1.29zM3.342 14.814H1a.75.75 0 1 0 0 1.5h2.342a.75.75 0 1 0 0-1.5zM14.993 3.357V1.029a.75.75 0 1 0-1.5 0v2.328a.75.75 0 0 0 1.5 0zM25.787 16.314h2.634a.75.75 0 0 0 0-1.5h-2.634a.75.75 0 1 0 0 1.5zM5.645 7.34L3.65 5.92a.75.75 0 0 0-.87 1.222l1.994 1.42a.75.75 0 0 0 .87-1.221zM23.38 7.653l2.286-1.42a.75.75 0 1 0-.791-1.274l-2.287 1.42a.75.75 0 0 0 .792 1.274z"/>
        <path d="M14.565 10.73s2.66-.14 3.4 3.688l1.444-.433c-.739-3.826-4.245-4.63-4.245-4.63l-.6 1.375z"/>
    </g>
</svg>
