<svg xmlns="http://www.w3.org/2000/svg" xmlns:xlink="http://www.w3.org/1999/xlink" width="45" height="25" viewBox="0 0 45 25">
    <defs>
        <path id="a" d="M0 29h45V0H0z"/>
    </defs>
    <g fill="none" fill-rule="evenodd">
        <path fill="#333" d="M5 15H3c-1.654 0-3-1.346-3-3V3c0-1.654 1.346-3 3-3h16a1 1 0 0 1 0 2H3c-.551 0-1 .449-1 1v9c0 .551.449 1 1 1h2a1 1 0 0 1 0 2M42 15h-2a1 1 0 0 1 0-2h2c.551 0 1-.449 1-1V3c0-.551-.449-1-1-1H26a1 1 0 0 1 0-2h16c1.654 0 3 1.346 3 3v9c0 1.654-1.346 3-3 3"/>
        <mask id="b" fill="#fff">
            <use xlink:href="#a"/>
        </mask>
        <path fill="#212121" d="M6 23h33V8H6v15zm-2 2h37V6H4v19z" mask="url(#b)"/>
        <path fill="#00965E" d="M26 21h-1.08c-2.861 0-5.277-2.519-5.277-5.5S22.059 10 24.92 10H26a1 1 0 0 1 0 2h-1.08c-1.746 0-3.277 1.636-3.277 3.5S23.174 19 24.92 19H26a1 1 0 0 1 0 2" mask="url(#b)"/>
        <path fill="#00965E" d="M26 18h-7a1 1 0 0 1 0-2h7a1 1 0 0 1 0 2M26 15h-7a1 1 0 0 1 0-2h7a1 1 0 0 1 0 2" mask="url(#b)"/>
    </g>
</svg>
