<svg xmlns="http://www.w3.org/2000/svg" width="41" height="41" viewBox="0 0 41 41">
    <g fill="none" fill-rule="evenodd" stroke="#00965E" stroke-linecap="round" stroke-linejoin="round" stroke-width="2">
        <path d="M21.465 20.829L7.84 7.39 8.014 1 18.09 11.272l-.134 6.096M11.809 4.829l-.156 5.937M14.95 8.224l-.157 5.683M7.723 7.446l-6.392.174 10.2 10.077 6.169-.135M5.16 11.415l5.938-.156M8.301 14.555l5.937-.156M21.465 15.11a5.812 5.812 0 1 1-5.812 5.812"/>
        <path d="M21.465 8.49c6.866 0 12.433 5.566 12.433 12.433 0 6.866-5.567 12.432-12.433 12.432S9.032 27.789 9.032 20.923"/>
        <path d="M16.096 3.535c1.697-.523 3.5-.805 5.37-.805 10.046 0 18.192 8.145 18.192 18.193 0 10.048-8.146 18.192-18.193 18.192-10.048 0-18.193-8.144-18.193-18.192 0-1.814.265-3.565.76-5.218"/>
    </g>
</svg>
