<svg xmlns="http://www.w3.org/2000/svg" width="30" height="30" viewBox="0 0 30 30">
    <g fill="#B2965D" fill-rule="evenodd">
        <path fill-rule="nonzero" d="M5.303 29.189a.75.75 0 0 1-.75-.75v-3.742a.75.75 0 0 1 .75-.75h18.71a.75.75 0 0 1 .75.75v3.742a.75.75 0 0 1-.75.75H5.303zm17.96-1.5v-2.242H6.053v2.242h17.21z"/>
        <path fill-rule="nonzero" d="M21.018 22.656a.75.75 0 0 1 1.5 0v2.04a.75.75 0 0 1-.75.75H7.36a.75.75 0 0 1-.75-.75V14.34c0-4.357 3.563-7.887 7.954-7.887 4.39 0 7.953 3.53 7.953 7.887v4.315a.75.75 0 1 1-1.5 0V14.34c0-3.526-2.888-6.387-6.453-6.387-3.566 0-6.454 2.861-6.454 6.387v9.607h12.907v-1.29zM3.342 14.814a.75.75 0 1 1 0 1.5H1a.75.75 0 1 1 0-1.5h2.342zM14.993 3.357a.75.75 0 1 1-1.5 0V1.029a.75.75 0 0 1 1.5 0v2.328zM25.787 16.314a.75.75 0 1 1 0-1.5h2.634a.75.75 0 0 1 0 1.5h-2.634zM5.645 7.34a.75.75 0 0 1-.87 1.222L2.78 7.142a.75.75 0 0 1 .87-1.222l1.995 1.42zM23.38 7.653a.75.75 0 0 1-.792-1.274l2.287-1.42a.75.75 0 0 1 .791 1.274l-2.286 1.42z"/>
        <path d="M14.565 10.73s2.66-.14 3.4 3.688l1.444-.433c-.739-3.826-4.245-4.63-4.245-4.63l-.6 1.375z"/>
    </g>
</svg>
