<svg xmlns="http://www.w3.org/2000/svg" width="46" height="38" viewBox="0 0 46 38">
    <g fill="none" fill-rule="evenodd">
        <path fill="#212121" d="M5 36v-2h7.58S14 34 14 32.58v-3.525L22.889 29v3.715s0 1.285 1.42 1.285H27l1 2H5zM23.015 9.939H9.97a.97.97 0 0 1 0-1.94h13.046a.97.97 0 0 1 0 1.94z"/>
        <path fill="#333" d="M29.031 10h-1.292a.97.97 0 0 1 0-1.939h1.292a.97.97 0 0 1 0 1.94z"/>
        <path fill="#212121" d="M23.015 13.939H9.97a.97.97 0 0 1 0-1.94h13.046a.97.97 0 0 1 0 1.94z"/>
        <path fill="#333" d="M29.031 14h-1.292a.97.97 0 0 1 0-1.939h1.292a.97.97 0 0 1 0 1.94z"/>
        <path fill="#212121" d="M23.015 18H9.97a.97.97 0 0 1 0-1.939h13.046a.97.97 0 0 1 0 1.94z"/>
        <path fill="#333" d="M29.031 18h-1.292a.97.97 0 0 1 0-1.939h1.292a.97.97 0 0 1 0 1.94z"/>
        <path fill="#212121" d="M36.5 20.583c-4.365 0-7.917 3.552-7.917 7.917s3.552 7.917 7.917 7.917 7.917-3.552 7.917-7.917-3.552-7.917-7.917-7.917M36.5 38c-5.238 0-9.5-4.262-9.5-9.5s4.262-9.5 9.5-9.5 9.5 4.262 9.5 9.5-4.262 9.5-9.5 9.5"/>
        <path stroke="#00965E" stroke-linecap="round" stroke-linejoin="round" stroke-width="1.6" d="M39.514 26.125l-3.643 4.168-2.538-2.903"/>
        <path stroke="#212121" stroke-linecap="round" stroke-width="2" d="M21.31 26H3.841C2.272 26 1 24.709 1 23.115V3.885C1 2.29 2.272 1 3.842 1H34.16C35.729 1 37 2.291 37 3.885v9.894"/>
    </g>
</svg>
